<svg width="36" height="36" viewBox="0 0 36 36" fill="none" xmlns="http://www.w3.org/2000/svg">
<circle cx="18" cy="18" r="18" fill="#565656"/>
<path d="M17.7083 8.375C18.946 8.375 20.133 8.86667 21.0082 9.74183C21.8833 10.617 22.375 11.804 22.375 13.0417C22.375 14.2793 21.8833 15.4663 21.0082 16.3415C20.133 17.2167 18.946 17.7083 17.7083 17.7083C16.4707 17.7083 15.2837 17.2167 14.4085 16.3415C13.5333 15.4663 13.0417 14.2793 13.0417 13.0417C13.0417 11.804 13.5333 10.617 14.4085 9.74183C15.2837 8.86667 16.4707 8.375 17.7083 8.375M17.7083 20.0417C22.865 20.0417 27.0417 22.13 27.0417 24.7083V27.0417H8.375V24.7083C8.375 22.13 12.5517 20.0417 17.7083 20.0417Z" fill="#F6F6F6"/>
</svg>
